<svg xmlns="http://www.w3.org/2000/svg" version="1.1" xmlns:xlink="http://www.w3.org/1999/xlink" xmlns:svgjs="http://svgjs.dev/svgjs" width="1500" height="1211" viewBox="0 0 1500 1211"><g transform="matrix(1,0,0,1,-1.9411230698383406,-1.9532258064516554)"><svg viewBox="0 0 307 248" data-background-color="#ffffff" preserveAspectRatio="xMidYMid meet" height="1211" width="1500" xmlns="http://www.w3.org/2000/svg" xmlns:xlink="http://www.w3.org/1999/xlink"><g id="tight-bounds" transform="matrix(1,0,0,1,0.397283188293585,0.4000000000000057)"><svg viewBox="0 0 306.20543362341283 247.2" height="247.2" width="306.20543362341283"><g><svg viewBox="0 0 395.5199999999999 319.3037525266311" height="247.2" width="306.20543362341283"><g transform="matrix(1,0,0,1,0,193.78881505563808)"><svg viewBox="0 0 395.5199999999999 125.51493747099306" height="125.51493747099306" width="395.5199999999999"><g id="textblocktransform"><svg viewBox="0 0 395.5199999999999 125.51493747099306" height="125.51493747099306" width="395.5199999999999" id="textblock"><g><svg viewBox="0 0 395.5199999999999 86.10435398230088" height="86.10435398230088" width="395.5199999999999"><g transform="matrix(1,0,0,1,0,0)"><svg width="395.5199999999999" viewBox="4.38 -32.29 196.16 42.71" height="86.10435398230088" data-palette-color="#4cabdd"><path d="M30-31.25L30 1.04 8.13-22.4 8.13 0 4.38 0 4.38-32.29 26.25-8.85 26.25-31.25 30-31.25ZM47.64 0.42L47.64 0.42Q44.37 0.42 41.79-1.04 39.2-2.5 37.72-5.02 36.25-7.53 36.25-10.63L36.25-10.63Q36.25-13.58 37.67-15.99 39.09-18.4 41.51-19.83 43.92-21.25 46.84-21.25L46.84-21.25Q49.72-21.25 52.12-19.88 54.51-18.51 55.94-16.18 57.36-13.85 57.36-10.9L57.36-10.9 57.36-9.38 43.75-9.38Q42.84-9.38 41.91-9.44 40.97-9.51 40.07-9.65L40.07-9.65Q40.45-6.88 42.58-5 44.72-3.13 47.67-3.13L47.67-3.13Q49.65-3.13 51.35-4.03 53.05-4.93 54.09-6.42L54.09-6.42 55.14-2.15Q53.64-0.94 51.72-0.26 49.79 0.42 47.64 0.42ZM39.96-12.19L39.96-12.19Q41.84-12.5 43.75-12.5L43.75-12.5 50.66-12.5Q51.42-12.5 52.17-12.45 52.91-12.4 53.68-12.33L53.68-12.33Q53.19-14.76 51.25-16.34 49.3-17.92 46.84-17.92L46.84-17.92Q44.3-17.92 42.39-16.23 40.48-14.55 39.96-12.19ZM74.16-8.26L69.96 1.04 59.44-20.83 63.71-20.83 67.91-11.81Q68.5-10.52 69.04-9.31 69.58-8.09 70.1-6.25L70.1-6.25Q70.65-8.06 71.23-9.31 71.8-10.56 72.32-11.81L72.32-11.81 76.52-21.81 80.69-11.81Q81.21-10.52 81.77-9.31 82.32-8.09 82.84-6.25L82.84-6.25Q83.36-8.09 83.92-9.32 84.47-10.56 85.06-11.81L85.06-11.81 89.34-20.83 93.33-20.83 82.81 1.04 78.57-8.26Q78.02-9.51 77.48-10.75 76.94-11.98 76.38-13.72L76.38-13.72Q75.86-11.98 75.31-10.75 74.75-9.51 74.16-8.26L74.16-8.26ZM102.46 0.42L102.46 0.42Q100.86 0.42 99.04-0.19 97.21-0.8 95.9-2.22L95.9-2.22 96.94-6.32Q97.91-4.69 99.44-3.73 100.96-2.78 102.7-2.78L102.7-2.78Q104.37-2.78 105.2-3.59 106.03-4.41 106.03-5.59L106.03-5.59Q106.03-6.94 105.15-7.57 104.26-8.19 103.57-8.44L103.57-8.44 100.76-9.51Q99.99-9.83 98.92-10.43 97.84-11.04 97.04-12.19 96.24-13.33 96.24-15.17L96.24-15.17Q96.24-16.84 97.04-18.23 97.84-19.62 99.3-20.43 100.76-21.25 102.74-21.25L102.74-21.25Q104.3-21.25 106-20.69 107.7-20.14 108.88-18.82L108.88-18.82 107.84-14.72Q107.01-16.25 105.58-17.15 104.16-18.06 102.63-18.06L102.63-18.06Q101.21-18.06 100.39-17.26 99.58-16.46 99.58-15.42L99.58-15.42Q99.58-14.58 100.13-13.92 100.69-13.26 101.8-12.85L101.8-12.85 104.61-11.77Q105.37-11.49 106.5-10.87 107.63-10.24 108.5-9.06 109.37-7.88 109.37-5.87L109.37-5.87Q109.37-3.06 107.41-1.32 105.44 0.42 102.46 0.42ZM126.48 0L122.49 0 135.72-32.29 135.79-32.29 149.02 0 144.81 0 141.13-9.27 130.2-9.27 126.48 0ZM133.98-18.75L131.52-12.57 139.81-12.57 137.35-18.75Q136.9-19.93 136.48-21.08 136.06-22.22 135.65-23.82L135.65-23.82Q135.23-22.22 134.85-21.09 134.47-19.97 133.98-18.75L133.98-18.75ZM156.72 10.42L152.97 10.42 152.97-20.83 156.44-20.83 156.44-18.09Q157.87-19.51 159.74-20.31 161.62-21.11 163.77-21.11L163.77-21.11Q166.65-21.11 169-19.67 171.34-18.23 172.75-15.8 174.15-13.37 174.15-10.42L174.15-10.42Q174.15-7.47 172.75-5.03 171.34-2.6 169-1.16 166.65 0.28 163.77 0.28L163.77 0.28Q161.72 0.28 159.92-0.45 158.11-1.18 156.72-2.47L156.72-2.47 156.72 10.42ZM163.28-3.13L163.28-3.13Q165.26-3.13 166.88-4.11 168.49-5.1 169.45-6.75 170.4-8.4 170.4-10.42L170.4-10.42Q170.4-12.43 169.45-14.08 168.49-15.73 166.88-16.72 165.26-17.71 163.28-17.71L163.28-17.71Q161.3-17.71 159.69-16.72 158.08-15.73 157.12-14.08 156.17-12.43 156.17-10.42L156.17-10.42Q156.17-8.4 157.12-6.75 158.08-5.1 159.69-4.11 161.3-3.13 163.28-3.13ZM183.11 10.42L179.36 10.42 179.36-20.83 182.83-20.83 182.83-18.09Q184.25-19.51 186.13-20.31 188-21.11 190.16-21.11L190.16-21.11Q193.04-21.11 195.38-19.67 197.73-18.23 199.13-15.8 200.54-13.37 200.54-10.42L200.54-10.42Q200.54-7.47 199.13-5.03 197.73-2.6 195.38-1.16 193.04 0.28 190.16 0.28L190.16 0.28Q188.11 0.28 186.3-0.45 184.5-1.18 183.11-2.47L183.11-2.47 183.11 10.42ZM189.67-3.13L189.67-3.13Q191.65-3.13 193.26-4.11 194.88-5.1 195.83-6.75 196.79-8.4 196.79-10.42L196.79-10.42Q196.79-12.43 195.83-14.08 194.88-15.73 193.26-16.72 191.65-17.71 189.67-17.71L189.67-17.71Q187.69-17.71 186.08-16.72 184.46-15.73 183.51-14.08 182.55-12.43 182.55-10.42L182.55-10.42Q182.55-8.4 183.51-6.75 184.46-5.1 186.08-4.11 187.69-3.13 189.67-3.13Z" opacity="1" transform="matrix(1,0,0,1,0,0)" fill="#4cabdd" class="wordmark-text-0" data-fill-palette-color="primary" id="text-0"></path></svg></g></svg></g><g transform="matrix(1,0,0,1,75.54431999999998,106.43152545302654)"><svg viewBox="0 0 244.43135999999996 19.083412017966513" height="19.083412017966513" width="244.43135999999996"><g transform="matrix(1,0,0,1,0,0)"><svg width="244.43135999999996" viewBox="2.8 -34 614.62 47.8" height="19.083412017966513" data-palette-color="#ffffff"><path d="M5.9 0.5L5.9 0.5Q4.7 0.5 3.95-0.15 3.2-0.8 3.2-2.8L3.2-2.8Q3.2-3.8 3.4-5.4 3.6-7 3.8-8.6L3.8-8.6Q4.35-12.15 4.6-14.75 4.85-17.35 4.85-20.05L4.85-20.05Q4.85-22.55 4.58-24.7 4.3-26.85 3.2-28.4L3.2-28.4Q2.8-29.05 2.8-29.4L2.8-29.4Q2.8-30 3.48-30.68 4.15-31.35 5.13-31.8 6.1-32.25 6.95-32.25L6.95-32.25Q8.5-32.25 9.03-30.88 9.55-29.5 9.55-27.45L9.55-27.45Q9.55-26.2 9.4-24.35 9.25-22.5 9.08-20.78 8.9-19.05 8.75-18.1L8.75-18.1Q8.4-15.45 8.2-13.15 8-10.85 8-9.25L8-9.25Q8-7.35 8.38-6.05 8.75-4.75 9.7-3.9L9.7-3.9Q10.35-3.3 10.35-2.55L10.35-2.55Q10.35-1.35 9.13-0.43 7.9 0.5 5.9 0.5ZM17.55 0.55L17.55 0.55Q15.75 0.55 15.95-0.65L15.95-0.65Q16.5-2.8 16.87-5.03 17.25-7.25 17.25-9.3L17.25-9.3Q17.25-11.95 16.92-13.18 16.6-14.4 16.05-14.88 15.5-15.35 14.7-15.6L14.7-15.6Q14.35-15.75 14.07-16 13.8-16.25 13.8-16.7L13.8-16.7Q13.8-17.4 14.35-18.25 14.9-19.1 15.92-19.73 16.95-20.35 18.25-20.35L18.25-20.35Q19.95-20.35 20.6-19.18 21.25-18 21.25-16.1L21.25-16.1Q21.25-14.85 21-13.3 20.75-11.75 20.5-10.5L20.5-10.5 20.65-10.45Q21.65-13.1 23.07-15.38 24.5-17.65 26.4-19.05 28.3-20.45 30.8-20.45L30.8-20.45Q33.45-20.45 34.85-18.85 36.25-17.25 36.25-14.85L36.25-14.85Q36.25-13.85 36.02-12.95 35.8-12.05 35.55-11.2L35.55-11.2Q35.3-10.4 35.12-9.55 34.95-8.7 34.95-7.85L34.95-7.85Q34.95-5 37.65-4L37.65-4Q38.35-3.7 38.35-3.1L38.35-3.1Q38.35-2.65 38.05-1.8 37.75-0.95 36.95-0.23 36.15 0.5 34.6 0.5L34.6 0.5Q32.6 0.5 31.5-0.93 30.4-2.35 30.4-4.55L30.4-4.55Q30.4-5.8 30.67-7.08 30.95-8.35 31.25-9.45L31.25-9.45Q31.45-10.3 31.62-11.13 31.8-11.95 31.8-12.6L31.8-12.6Q31.8-14.9 29.4-14.9L29.4-14.9Q27.35-14.9 25.8-13.38 24.25-11.85 23.15-9.55 22.05-7.25 21.35-4.9L21.35-4.9 21.35-3.7Q21.35-1.85 20.32-0.65 19.3 0.55 17.55 0.55ZM44.5 9.6L44.5 9.6Q43.55 9.6 43.05 9.13 42.55 8.65 42.6 7.4L42.6 7.4Q42.6 6.65 42.72 4.73 42.85 2.8 43.07 0.18 43.3-2.45 43.57-5.3 43.85-8.15 44.1-10.8 44.35-13.45 44.55-15.35L44.55-15.35Q44.05-15.3 43.6-15.28 43.15-15.25 42.7-15.15L42.7-15.15Q42.2-15.05 41.95-15.05L41.95-15.05Q41.35-15.05 41.15-15.78 40.95-16.5 40.95-17.15L40.95-17.15Q40.95-17.9 41.17-18.4 41.4-18.9 42.15-19.2L42.15-19.2Q42.6-19.4 43.32-19.55 44.05-19.7 44.85-19.8L44.85-19.8Q45.1-22.75 45.62-25.4 46.15-28.05 47.25-29.9L47.25-29.9Q48.4-31.8 50.37-32.9 52.35-34 54.4-34L54.4-34Q55.9-34 57.22-33.43 58.55-32.85 59.37-31.83 60.2-30.8 60.2-29.5L60.2-29.5Q60.2-28.55 59.72-27.95 59.25-27.35 58.65-27.35L58.65-27.35Q58.4-27.35 58.09-27.45 57.8-27.55 57.5-27.65L57.5-27.65Q56.95-27.9 56.12-28.08 55.3-28.25 54.35-28.25L54.35-28.25Q52.4-28.25 51.27-27.2 50.15-26.15 49.57-24.33 49-22.5 48.65-20.1L48.65-20.1Q49.7-20.2 50.9-20.3 52.1-20.4 52.85-20.4L52.85-20.4Q54.05-20.4 54.72-20.03 55.4-19.65 55.4-18.6L55.4-18.6Q55.4-17.95 55.17-17.07 54.95-16.2 54.5-15.53 54.05-14.85 53.45-14.85L53.45-14.85Q53.2-14.85 52.6-15L52.6-15Q51.95-15.1 50.9-15.25 49.85-15.4 48.25-15.45L48.25-15.45Q48.05-13.3 47.92-10.68 47.8-8.05 47.8-5.15L47.8-5.15Q47.8-2 48 0.3 48.2 2.6 48.4 4.05L48.4 4.05Q48.5 4.7 48.55 5.2 48.6 5.7 48.6 6L48.6 6Q48.6 7.45 47.9 8.22 47.2 9 46.25 9.3 45.3 9.6 44.5 9.6ZM64.74 0.65L64.74 0.65Q61.29 0.65 59.22-1.23 57.14-3.1 57.14-6.75L57.14-6.75Q57.14-8.45 57.62-10.05 58.09-11.65 58.89-13.05L58.89-13.05Q58.09-12.55 57.69-12.55L57.69-12.55Q57.09-12.55 56.87-13.23 56.64-13.9 56.64-14.55L56.64-14.55Q56.64-15.7 57.12-16.38 57.59-17.05 58.04-17.4L58.04-17.4Q59.09-18.3 61.34-19.38 63.59-20.45 66.74-20.45L66.74-20.45Q71.04-20.45 73.42-18.05 75.79-15.65 75.79-11.35L75.79-11.35Q75.79-8 74.39-5.28 72.99-2.55 70.52-0.95 68.04 0.65 64.74 0.65ZM66.29-4.45L66.29-4.45Q68.79-4.45 70.52-6.03 72.24-7.6 72.24-10.2L72.24-10.2Q72.24-12.9 70.49-14.05 68.74-15.2 66.44-15.2L66.44-15.2Q65.39-15.2 64.54-15 63.69-14.8 62.94-14.5L62.94-14.5Q62.24-13.5 61.69-12.25 61.14-11 61.14-9.5L61.14-9.5Q61.14-7 62.64-5.73 64.14-4.45 66.29-4.45ZM82.64 0.55L82.64 0.55Q81.84 0.55 81.37 0.28 80.89 0 81.04-0.65L81.04-0.65Q81.59-2.8 81.97-5.03 82.34-7.25 82.34-9.3L82.34-9.3Q82.34-11.95 82.02-13.18 81.69-14.4 81.14-14.88 80.59-15.35 79.79-15.6L79.79-15.6Q79.44-15.75 79.17-16 78.89-16.25 78.89-16.7L78.89-16.7Q78.89-17.4 79.44-18.25 79.99-19.1 80.99-19.73 81.99-20.35 83.29-20.35L83.29-20.35Q84.99-20.35 85.67-19.18 86.34-18 86.34-16.1L86.34-16.1Q87.24-18.1 88.57-19.28 89.89-20.45 91.89-20.45L91.89-20.45Q93.24-20.45 94.14-19.85 95.04-19.25 95.04-17.9L95.04-17.9Q95.04-16.55 94.17-15.38 93.29-14.2 92.39-14.2L92.39-14.2Q92.24-14.2 92.04-14.25 91.84-14.3 91.69-14.5L91.69-14.5Q91.04-15.3 90.09-15.3L90.09-15.3Q88.64-15.3 87.54-13.4 86.44-11.5 86.34-8.15L86.34-8.15Q86.39-6.9 86.42-5.6 86.44-4.3 86.44-3.7L86.44-3.7Q86.44-1.85 85.42-0.65 84.39 0.55 82.64 0.55ZM99.89 0.55L99.89 0.55Q98.09 0.55 98.29-0.65L98.29-0.65Q98.84-2.8 99.21-5.03 99.59-7.25 99.59-9.3L99.59-9.3Q99.59-11.95 99.26-13.18 98.94-14.4 98.39-14.88 97.84-15.35 97.04-15.6L97.04-15.6Q96.69-15.75 96.41-16 96.14-16.25 96.14-16.7L96.14-16.7Q96.14-17.4 96.69-18.25 97.24-19.1 98.26-19.73 99.29-20.35 100.59-20.35L100.59-20.35Q102.29-20.35 102.94-19.18 103.59-18 103.59-16.1L103.59-16.1Q103.59-14.85 103.34-13.3 103.09-11.75 102.84-10.5L102.84-10.5 102.94-10.45Q103.74-13.1 104.91-15.35 106.09-17.6 107.76-19 109.44-20.4 111.64-20.4L111.64-20.4Q113.89-20.4 115.19-18.88 116.49-17.35 116.49-14.4L116.49-14.4 116.49-13.3Q117.94-16.35 120.01-18.4 122.09-20.45 125.04-20.45L125.04-20.45Q127.44-20.45 128.79-18.85 130.14-17.25 130.14-14.85L130.14-14.85Q130.14-13.9 129.94-13.03 129.74-12.15 129.49-11.3L129.49-11.3Q129.29-10.5 129.09-9.65 128.89-8.8 128.89-7.95L128.89-7.95Q128.89-4.95 131.44-4.05L131.44-4.05Q131.79-3.9 131.99-3.73 132.19-3.55 132.19-3.1L132.19-3.1Q132.19-2.65 131.91-1.8 131.64-0.95 130.84-0.23 130.04 0.5 128.54 0.5L128.54 0.5Q126.59 0.5 125.54-0.93 124.49-2.35 124.49-4.55L124.49-4.55Q124.49-5.65 124.69-6.85 124.89-8.05 125.19-9.15L125.19-9.15Q125.44-10.15 125.61-11.05 125.79-11.95 125.79-12.6L125.79-12.6Q125.79-13.8 125.21-14.35 124.64-14.9 123.69-14.9L123.69-14.9Q122.09-14.9 120.81-13.9 119.54-12.9 118.56-11.3 117.59-9.7 116.89-7.8L116.89-7.8Q116.94-7.35 116.96-6.63 116.99-5.9 116.99-5.35L116.99-5.35Q116.99-4.4 116.86-3.35 116.74-2.3 116.39-1.6L116.39-1.6Q115.99-0.65 115.21-0.05 114.44 0.55 113.14 0.55L113.14 0.55Q112.59 0.55 112.09 0.33 111.59 0.1 111.59-0.4L111.59-0.4Q111.59-0.6 111.89-2.18 112.19-3.75 112.49-6.05 112.79-8.35 112.79-10.55L112.79-10.55Q112.79-12.95 112.29-13.88 111.79-14.8 110.79-14.8L110.79-14.8Q109.54-14.8 108.41-13.75 107.29-12.7 106.36-11.05 105.44-9.4 104.76-7.6 104.09-5.8 103.69-4.25L103.69-4.25 103.69-3.7Q103.69-1.85 102.66-0.65 101.64 0.55 99.89 0.55ZM141.59 0.65L141.59 0.65Q138.59 0.65 136.76-1.23 134.94-3.1 134.94-6.6L134.94-6.6Q134.94-9.1 135.91-11.58 136.89-14.05 138.74-16.05 140.59-18.05 143.19-19.25 145.79-20.45 149.04-20.45L149.04-20.45Q152.04-20.45 154.16-19.43 156.29-18.4 156.29-16.65L156.29-16.65Q156.29-16.2 156.19-15.48 156.09-14.75 155.94-14.3L155.94-14.3Q155.79-13.9 155.51-13.58 155.24-13.25 154.79-13.25L154.79-13.25Q154.59-13.25 154.04-13.4L154.04-13.4Q153.84-12.35 153.74-11.35 153.64-10.35 153.64-9.35L153.64-9.35Q153.64-7.45 154.21-5.98 154.79-4.5 156.49-4.15L156.49-4.15Q156.94-4.05 157.21-3.85 157.49-3.65 157.49-3L157.49-3Q157.49-2.45 157.21-1.6 156.94-0.75 156.16-0.08 155.39 0.6 153.94 0.6L153.94 0.6Q151.99 0.6 150.94-0.83 149.89-2.25 149.89-4.9L149.89-4.9Q148.54-2.45 146.46-0.9 144.39 0.65 141.59 0.65ZM143.19-4.55L143.19-4.55Q145.19-4.55 146.71-5.8 148.24-7.05 149.09-8.95L149.09-8.95Q149.64-10.15 149.94-11.58 150.24-13 150.34-14.4L150.34-14.4Q149.49-14.8 148.39-15.05 147.29-15.3 146.09-15.3L146.09-15.3Q143.04-15.3 141.06-13.5 139.09-11.7 139.09-9L139.09-9Q139.09-7 140.19-5.78 141.29-4.55 143.19-4.55ZM167.88 0.65L167.88 0.65Q164.83 0.65 163.51-1.38 162.18-3.4 162.18-6.6L162.18-6.6Q162.18-7.75 162.31-8.85 162.43-9.95 162.58-11.05L162.58-11.05Q162.73-12.15 162.88-13.2 163.03-14.25 163.13-15.2L163.13-15.2Q162.08-14.9 161.03-14.9L161.03-14.9Q159.93-14.9 159.93-15.8L159.93-15.8Q159.93-16.75 160.78-18.13 161.63-19.5 162.91-20.85 164.18-22.2 165.46-23.13 166.73-24.05 167.63-24.05L167.63-24.05Q168.73-24.05 168.73-22.15L168.73-22.15Q168.73-21.65 168.66-21.13 168.58-20.6 168.48-20.05L168.48-20.05Q169.43-20.25 170.41-20.4 171.38-20.55 172.28-20.55L172.28-20.55Q173.43-20.55 174.06-20.15 174.68-19.75 174.68-18.6L174.68-18.6Q174.68-17.4 174.11-16.2 173.53-15 172.83-15L172.83-15Q172.68-15 172.33-15.05 171.98-15.1 171.48-15.2L171.48-15.2Q170.83-15.35 169.83-15.5 168.83-15.65 167.43-15.65L167.43-15.65Q167.08-14.1 166.81-12.48 166.53-10.85 166.53-9.55L166.53-9.55Q166.53-6.65 167.98-5.6 169.43-4.55 172.18-4.55L172.18-4.55Q173.03-4.55 173.38-4.28 173.73-4 173.73-3.3L173.73-3.3Q173.73-1.65 172.03-0.5 170.33 0.65 167.88 0.65ZM181.53-24.85L181.53-24.85Q180.13-24.9 179.28-25.7 178.43-26.5 178.43-27.95L178.43-27.95Q178.48-29.5 179.48-30.48 180.48-31.45 182.03-31.4L182.03-31.4Q183.48-31.35 184.31-30.55 185.13-29.75 185.08-28.3L185.08-28.3Q185.03-26.8 184.08-25.83 183.13-24.85 181.53-24.85ZM181.58 0.5L181.58 0.5Q180.08 0.5 179.23-0.33 178.38-1.15 178.38-3.15L178.38-3.15Q178.38-4.3 178.61-5.4 178.83-6.5 179.13-7.55L179.13-7.55Q179.48-8.65 179.71-9.8 179.93-10.95 179.93-12.25L179.93-12.25Q179.93-13.15 179.68-13.98 179.43-14.8 178.58-15.2L178.58-15.2Q177.93-15.55 177.46-15.93 176.98-16.3 176.98-16.9L176.98-16.9Q176.98-17.6 177.63-18.4 178.28-19.2 179.36-19.78 180.43-20.35 181.58-20.35L181.58-20.35Q182.83-20.35 183.41-19.7 183.98-19.05 184.18-18.05 184.38-17.05 184.38-16L184.38-16Q184.38-14.4 184.13-12.88 183.88-11.35 183.63-10.05L183.63-10.05Q183.43-9.1 183.33-8.3 183.23-7.5 183.23-6.8L183.23-6.8Q183.23-5.55 183.83-4.93 184.43-4.3 185.53-3.75L185.53-3.75Q185.98-3.5 185.98-3L185.98-3Q185.98-2.6 185.58-1.75 185.18-0.9 184.21-0.2 183.23 0.5 181.58 0.5ZM197.63 0.65L197.63 0.65Q194.18 0.65 192.1-1.23 190.03-3.1 190.03-6.75L190.03-6.75Q190.03-8.45 190.5-10.05 190.98-11.65 191.78-13.05L191.78-13.05Q190.98-12.55 190.58-12.55L190.58-12.55Q189.98-12.55 189.75-13.23 189.53-13.9 189.53-14.55L189.53-14.55Q189.53-15.7 190-16.38 190.48-17.05 190.93-17.4L190.93-17.4Q191.98-18.3 194.23-19.38 196.48-20.45 199.63-20.45L199.63-20.45Q203.93-20.45 206.3-18.05 208.68-15.65 208.68-11.35L208.68-11.35Q208.68-8 207.28-5.28 205.88-2.55 203.4-0.95 200.93 0.65 197.63 0.65ZM199.18-4.45L199.18-4.45Q201.68-4.45 203.4-6.03 205.13-7.6 205.13-10.2L205.13-10.2Q205.13-12.9 203.38-14.05 201.63-15.2 199.33-15.2L199.33-15.2Q198.28-15.2 197.43-15 196.58-14.8 195.83-14.5L195.83-14.5Q195.13-13.5 194.58-12.25 194.03-11 194.03-9.5L194.03-9.5Q194.03-7 195.53-5.73 197.03-4.45 199.18-4.45ZM215.33 0.55L215.33 0.55Q213.53 0.55 213.73-0.65L213.73-0.65Q214.28-2.8 214.65-5.03 215.03-7.25 215.03-9.3L215.03-9.3Q215.03-11.95 214.7-13.18 214.38-14.4 213.83-14.88 213.28-15.35 212.48-15.6L212.48-15.6Q212.13-15.75 211.85-16 211.58-16.25 211.58-16.7L211.58-16.7Q211.58-17.4 212.13-18.25 212.68-19.1 213.7-19.73 214.73-20.35 216.03-20.35L216.03-20.35Q217.73-20.35 218.38-19.18 219.03-18 219.03-16.1L219.03-16.1Q219.03-14.85 218.78-13.3 218.53-11.75 218.28-10.5L218.28-10.5 218.43-10.45Q219.43-13.1 220.85-15.38 222.28-17.65 224.18-19.05 226.08-20.45 228.58-20.45L228.58-20.45Q231.23-20.45 232.63-18.85 234.03-17.25 234.03-14.85L234.03-14.85Q234.03-13.85 233.8-12.95 233.58-12.05 233.33-11.2L233.33-11.2Q233.08-10.4 232.9-9.55 232.73-8.7 232.73-7.85L232.73-7.85Q232.73-5 235.43-4L235.43-4Q236.13-3.7 236.13-3.1L236.13-3.1Q236.13-2.65 235.83-1.8 235.53-0.95 234.73-0.23 233.93 0.5 232.38 0.5L232.38 0.5Q230.38 0.5 229.28-0.93 228.18-2.35 228.18-4.55L228.18-4.55Q228.18-5.8 228.45-7.08 228.73-8.35 229.03-9.45L229.03-9.45Q229.23-10.3 229.4-11.13 229.58-11.95 229.58-12.6L229.58-12.6Q229.58-14.9 227.18-14.9L227.18-14.9Q225.13-14.9 223.58-13.38 222.03-11.85 220.93-9.55 219.83-7.25 219.13-4.9L219.13-4.9 219.13-3.7Q219.13-1.85 218.1-0.65 217.08 0.55 215.33 0.55ZM243.47 0.45L243.47 0.45Q242.07 0.45 241.2-0.45 240.32-1.35 240.32-2.75L240.32-2.75Q240.32-4.2 241.27-5.15 242.22-6.1 243.72-6.1L243.72-6.1Q245.12-6.1 245.97-5.25 246.82-4.4 246.82-3L246.82-3Q246.82-1.5 245.87-0.53 244.92 0.45 243.47 0.45ZM255.77 0.45L255.77 0.45Q254.37 0.45 253.5-0.45 252.62-1.35 252.62-2.75L252.62-2.75Q252.62-4.2 253.57-5.15 254.52-6.1 256.02-6.1L256.02-6.1Q257.42-6.1 258.27-5.25 259.12-4.4 259.12-3L259.12-3Q259.12-1.5 258.17-0.53 257.22 0.45 255.77 0.45ZM280.27 0.65L280.27 0.65Q277.27 0.65 275.44-1.23 273.62-3.1 273.62-6.6L273.62-6.6Q273.62-9.1 274.59-11.58 275.56-14.05 277.42-16.05 279.27-18.05 281.87-19.25 284.47-20.45 287.72-20.45L287.72-20.45Q290.72-20.45 292.84-19.43 294.97-18.4 294.97-16.65L294.97-16.65Q294.97-16.2 294.87-15.48 294.77-14.75 294.62-14.3L294.62-14.3Q294.47-13.9 294.19-13.58 293.92-13.25 293.47-13.25L293.47-13.25Q293.27-13.25 292.72-13.4L292.72-13.4Q292.52-12.35 292.42-11.35 292.31-10.35 292.31-9.35L292.31-9.35Q292.31-7.45 292.89-5.98 293.47-4.5 295.17-4.15L295.17-4.15Q295.62-4.05 295.89-3.85 296.17-3.65 296.17-3L296.17-3Q296.17-2.45 295.89-1.6 295.62-0.75 294.84-0.08 294.06 0.6 292.62 0.6L292.62 0.6Q290.67 0.6 289.62-0.83 288.56-2.25 288.56-4.9L288.56-4.9Q287.22-2.45 285.14-0.9 283.06 0.65 280.27 0.65ZM281.87-4.55L281.87-4.55Q283.87-4.55 285.39-5.8 286.92-7.05 287.77-8.95L287.77-8.95Q288.31-10.15 288.62-11.58 288.92-13 289.02-14.4L289.02-14.4Q288.17-14.8 287.06-15.05 285.97-15.3 284.77-15.3L284.77-15.3Q281.72-15.3 279.74-13.5 277.77-11.7 277.77-9L277.77-9Q277.77-7 278.87-5.78 279.97-4.55 281.87-4.55ZM306.56 0.65L306.56 0.65Q303.51 0.65 302.19-1.38 300.86-3.4 300.86-6.6L300.86-6.6Q300.86-7.75 300.99-8.85 301.11-9.95 301.26-11.05L301.26-11.05Q301.41-12.15 301.56-13.2 301.71-14.25 301.81-15.2L301.81-15.2Q300.76-14.9 299.71-14.9L299.71-14.9Q298.61-14.9 298.61-15.8L298.61-15.8Q298.61-16.75 299.46-18.13 300.31-19.5 301.59-20.85 302.86-22.2 304.14-23.13 305.41-24.05 306.31-24.05L306.31-24.05Q307.41-24.05 307.41-22.15L307.41-22.15Q307.41-21.65 307.34-21.13 307.26-20.6 307.16-20.05L307.16-20.05Q308.11-20.25 309.09-20.4 310.06-20.55 310.96-20.55L310.96-20.55Q312.11-20.55 312.74-20.15 313.36-19.75 313.36-18.6L313.36-18.6Q313.36-17.4 312.79-16.2 312.21-15 311.51-15L311.51-15Q311.36-15 311.01-15.05 310.66-15.1 310.16-15.2L310.16-15.2Q309.51-15.35 308.51-15.5 307.51-15.65 306.11-15.65L306.11-15.65Q305.76-14.1 305.49-12.48 305.21-10.85 305.21-9.55L305.21-9.55Q305.21-6.65 306.66-5.6 308.11-4.55 310.86-4.55L310.86-4.55Q311.71-4.55 312.06-4.28 312.41-4 312.41-3.3L312.41-3.3Q312.41-1.65 310.71-0.5 309.01 0.65 306.56 0.65ZM330.91 13.8L330.91 13.8Q328.86 13.8 327.38 12.7 325.91 11.6 325.91 9.75L325.91 9.75Q325.91 8.3 326.78 7.28 327.66 6.25 328.96 6.25L328.96 6.25Q329.56 6.25 329.81 6.45 330.06 6.65 330.21 6.9L330.21 6.9Q330.61 7.55 331.13 8.03 331.66 8.5 332.56 8.5L332.56 8.5Q333.76 8.5 334.88 7.65 336.01 6.8 336.96 5.7L336.96 5.7Q337.81 4.75 339.01 2.98 340.21 1.2 341.41-1.05L341.41-1.05Q340.31-0.1 339.36 0.33 338.41 0.75 337.56 0.75L337.56 0.75Q336.51 0.75 335.51-0.03 334.51-0.8 334.26-2.95L334.26-2.95Q334.11-4.6 333.68-6.6 333.26-8.6 332.63-10.48 332.01-12.35 331.11-13.65L331.11-13.65Q330.76-14.25 330.31-14.55 329.86-14.85 329.01-14.95L329.01-14.95Q328.41-15 328.23-15.3 328.06-15.6 328.06-16.25L328.06-16.25Q328.06-18.05 329.06-19.15 330.06-20.25 331.76-20.25L331.76-20.25Q333.81-20.25 334.71-18.68 335.61-17.1 336.26-14.85L336.26-14.85Q336.51-13.95 336.78-12.48 337.06-11 337.28-9.3 337.51-7.6 337.61-6.05L337.61-6.05Q337.66-4.95 338.86-4.95L338.86-4.95Q340.46-4.95 341.91-5.95 343.36-6.95 344.28-8.55 345.21-10.15 345.21-11.9L345.21-11.9Q345.21-12.9 344.96-13.7 344.71-14.5 344.11-15.1L344.11-15.1Q343.61-15.7 343.31-16.07 343.01-16.45 343.01-16.95L343.01-16.95Q343.01-17.8 343.81-18.55 344.61-19.3 345.73-19.8 346.86-20.3 347.71-20.3L347.71-20.3Q349.21-20.3 349.71-18.88 350.21-17.45 349.96-15.75L349.96-15.75Q349.66-13.4 348.76-10.2 347.86-7 346.43-3.5 345.01 0 343.18 3.28 341.36 6.55 339.31 9L339.31 9Q337.56 11.15 335.41 12.48 333.26 13.8 330.91 13.8ZM361.56 0.65L361.56 0.65Q358.11 0.65 356.03-1.23 353.95-3.1 353.95-6.75L353.95-6.75Q353.95-8.45 354.43-10.05 354.9-11.65 355.7-13.05L355.7-13.05Q354.9-12.55 354.5-12.55L354.5-12.55Q353.9-12.55 353.68-13.23 353.45-13.9 353.45-14.55L353.45-14.55Q353.45-15.7 353.93-16.38 354.4-17.05 354.86-17.4L354.86-17.4Q355.9-18.3 358.15-19.38 360.4-20.45 363.56-20.45L363.56-20.45Q367.86-20.45 370.23-18.05 372.61-15.65 372.61-11.35L372.61-11.35Q372.61-8 371.2-5.28 369.81-2.55 367.33-0.95 364.86 0.65 361.56 0.65ZM363.11-4.45L363.11-4.45Q365.61-4.45 367.33-6.03 369.06-7.6 369.06-10.2L369.06-10.2Q369.06-12.9 367.31-14.05 365.56-15.2 363.25-15.2L363.25-15.2Q362.2-15.2 361.36-15 360.5-14.8 359.75-14.5L359.75-14.5Q359.06-13.5 358.5-12.25 357.95-11 357.95-9.5L357.95-9.5Q357.95-7 359.45-5.73 360.95-4.45 363.11-4.45ZM382.7 0.65L382.7 0.65Q380.2 0.65 378.83-0.8 377.45-2.25 377.45-5L377.45-5Q377.45-6.95 378-9L378-9Q378.25-9.85 378.4-10.7 378.55-11.55 378.55-12.4L378.55-12.4Q378.55-14.6 377.2-15.25L377.2-15.25Q375.9-15.95 375.9-16.75L375.9-16.75Q375.9-17.55 376.58-18.35 377.25-19.15 378.25-19.68 379.25-20.2 380.25-20.2L380.25-20.2Q383.1-20.2 383.1-15.55L383.1-15.55Q383.1-14.05 382.88-12.78 382.65-11.5 382.35-10.35L382.35-10.35Q382.15-9.55 382.03-8.75 381.9-7.95 381.9-7.35L381.9-7.35Q381.9-4.85 384.35-4.85L384.35-4.85Q386.65-4.85 388.65-7.3 390.65-9.75 391.95-14.15L391.95-14.15 391.9-15.1Q391.8-17.6 392.78-18.9 393.75-20.2 395.65-20.2L395.65-20.2Q397.3-20.2 397.3-19.15L397.3-19.15Q397.3-18.8 397.18-18.25 397.05-17.7 396.8-16.95L396.8-16.95Q396.3-15.1 395.95-13.03 395.6-10.95 395.6-9.2L395.6-9.2Q395.6-7.25 396.2-5.98 396.8-4.7 398.45-4.25L398.45-4.25Q398.9-4.2 399.18-3.98 399.45-3.75 399.45-3.05L399.45-3.05Q399.45-1.85 398.45-0.7 397.45 0.45 395.55 0.45L395.55 0.45Q391.9 0.45 391.9-4.7L391.9-4.7Q391.9-5.6 392.05-7.4L392.05-7.4 391.95-7.45Q388.8 0.65 382.7 0.65ZM405.3 0.55L405.3 0.55Q404.5 0.55 404.03 0.28 403.55 0 403.7-0.65L403.7-0.65Q404.25-2.8 404.63-5.03 405-7.25 405-9.3L405-9.3Q405-11.95 404.68-13.18 404.35-14.4 403.8-14.88 403.25-15.35 402.45-15.6L402.45-15.6Q402.1-15.75 401.83-16 401.55-16.25 401.55-16.7L401.55-16.7Q401.55-17.4 402.1-18.25 402.65-19.1 403.65-19.73 404.65-20.35 405.95-20.35L405.95-20.35Q407.65-20.35 408.33-19.18 409-18 409-16.1L409-16.1Q409.9-18.1 411.23-19.28 412.55-20.45 414.55-20.45L414.55-20.45Q415.9-20.45 416.8-19.85 417.7-19.25 417.7-17.9L417.7-17.9Q417.7-16.55 416.83-15.38 415.95-14.2 415.05-14.2L415.05-14.2Q414.9-14.2 414.7-14.25 414.5-14.3 414.35-14.5L414.35-14.5Q413.7-15.3 412.75-15.3L412.75-15.3Q411.3-15.3 410.2-13.4 409.1-11.5 409-8.15L409-8.15Q409.05-6.9 409.08-5.6 409.1-4.3 409.1-3.7L409.1-3.7Q409.1-1.85 408.08-0.65 407.05 0.55 405.3 0.55ZM434.25 9.6L434.25 9.6Q433.3 9.6 432.8 9.13 432.3 8.65 432.35 7.4L432.35 7.4Q432.35 6.65 432.47 4.73 432.6 2.8 432.82 0.18 433.05-2.45 433.32-5.3 433.6-8.15 433.85-10.8 434.1-13.45 434.3-15.35L434.3-15.35Q433.8-15.3 433.35-15.28 432.9-15.25 432.45-15.15L432.45-15.15Q431.95-15.05 431.7-15.05L431.7-15.05Q431.1-15.05 430.9-15.78 430.7-16.5 430.7-17.15L430.7-17.15Q430.7-17.9 430.92-18.4 431.15-18.9 431.9-19.2L431.9-19.2Q432.35-19.4 433.07-19.55 433.8-19.7 434.6-19.8L434.6-19.8Q434.85-22.75 435.37-25.4 435.9-28.05 437-29.9L437-29.9Q438.15-31.8 440.12-32.9 442.1-34 444.15-34L444.15-34Q445.65-34 446.97-33.43 448.3-32.85 449.12-31.83 449.95-30.8 449.95-29.5L449.95-29.5Q449.95-28.55 449.47-27.95 449-27.35 448.4-27.35L448.4-27.35Q448.15-27.35 447.85-27.45 447.55-27.55 447.25-27.65L447.25-27.65Q446.7-27.9 445.87-28.08 445.05-28.25 444.1-28.25L444.1-28.25Q442.15-28.25 441.02-27.2 439.9-26.15 439.32-24.33 438.75-22.5 438.4-20.1L438.4-20.1Q439.45-20.2 440.65-20.3 441.85-20.4 442.6-20.4L442.6-20.4Q443.8-20.4 444.47-20.03 445.15-19.65 445.15-18.6L445.15-18.6Q445.15-17.95 444.92-17.07 444.7-16.2 444.25-15.53 443.8-14.85 443.2-14.85L443.2-14.85Q442.95-14.85 442.35-15L442.35-15Q441.7-15.1 440.65-15.25 439.6-15.4 438-15.45L438-15.45Q437.8-13.3 437.67-10.68 437.55-8.05 437.55-5.15L437.55-5.15Q437.55-2 437.75 0.3 437.95 2.6 438.15 4.05L438.15 4.05Q438.25 4.7 438.3 5.2 438.35 5.7 438.35 6L438.35 6Q438.35 7.45 437.65 8.22 436.95 9 436 9.3 435.05 9.6 434.25 9.6ZM450.79-24.85L450.79-24.85Q449.39-24.9 448.54-25.7 447.69-26.5 447.69-27.95L447.69-27.95Q447.74-29.5 448.74-30.48 449.74-31.45 451.29-31.4L451.29-31.4Q452.74-31.35 453.57-30.55 454.39-29.75 454.34-28.3L454.34-28.3Q454.29-26.8 453.34-25.83 452.39-24.85 450.79-24.85ZM450.84 0.5L450.84 0.5Q449.34 0.5 448.49-0.33 447.64-1.15 447.64-3.15L447.64-3.15Q447.64-4.3 447.87-5.4 448.09-6.5 448.39-7.55L448.39-7.55Q448.74-8.65 448.97-9.8 449.19-10.95 449.19-12.25L449.19-12.25Q449.19-13.15 448.94-13.98 448.69-14.8 447.84-15.2L447.84-15.2Q447.19-15.55 446.72-15.93 446.24-16.3 446.24-16.9L446.24-16.9Q446.24-17.6 446.89-18.4 447.54-19.2 448.62-19.78 449.69-20.35 450.84-20.35L450.84-20.35Q452.09-20.35 452.67-19.7 453.24-19.05 453.44-18.05 453.64-17.05 453.64-16L453.64-16Q453.64-14.4 453.39-12.88 453.14-11.35 452.89-10.05L452.89-10.05Q452.69-9.1 452.59-8.3 452.49-7.5 452.49-6.8L452.49-6.8Q452.49-5.55 453.09-4.93 453.69-4.3 454.79-3.75L454.79-3.75Q455.24-3.5 455.24-3L455.24-3Q455.24-2.6 454.84-1.75 454.44-0.9 453.47-0.2 452.49 0.5 450.84 0.5ZM461.79 0.55L461.79 0.55Q459.99 0.55 460.19-0.65L460.19-0.65Q460.74-2.8 461.12-5.03 461.49-7.25 461.49-9.3L461.49-9.3Q461.49-11.95 461.17-13.18 460.84-14.4 460.29-14.88 459.74-15.35 458.94-15.6L458.94-15.6Q458.59-15.75 458.32-16 458.04-16.25 458.04-16.7L458.04-16.7Q458.04-17.4 458.59-18.25 459.14-19.1 460.17-19.73 461.19-20.35 462.49-20.35L462.49-20.35Q464.19-20.35 464.84-19.18 465.49-18 465.49-16.1L465.49-16.1Q465.49-14.85 465.24-13.3 464.99-11.75 464.74-10.5L464.74-10.5 464.89-10.45Q465.89-13.1 467.32-15.38 468.74-17.65 470.64-19.05 472.54-20.45 475.04-20.45L475.04-20.45Q477.69-20.45 479.09-18.85 480.49-17.25 480.49-14.85L480.49-14.85Q480.49-13.85 480.27-12.95 480.04-12.05 479.79-11.2L479.79-11.2Q479.54-10.4 479.37-9.55 479.19-8.7 479.19-7.85L479.19-7.85Q479.19-5 481.89-4L481.89-4Q482.59-3.7 482.59-3.1L482.59-3.1Q482.59-2.65 482.29-1.8 481.99-0.95 481.19-0.23 480.39 0.5 478.84 0.5L478.84 0.5Q476.84 0.5 475.74-0.93 474.64-2.35 474.64-4.55L474.64-4.55Q474.64-5.8 474.92-7.08 475.19-8.35 475.49-9.45L475.49-9.45Q475.69-10.3 475.87-11.13 476.04-11.95 476.04-12.6L476.04-12.6Q476.04-14.9 473.64-14.9L473.64-14.9Q471.59-14.9 470.04-13.38 468.49-11.85 467.39-9.55 466.29-7.25 465.59-4.9L465.59-4.9 465.59-3.7Q465.59-1.85 464.57-0.65 463.54 0.55 461.79 0.55ZM492.29 13.8L492.29 13.8Q488.54 13.8 486.34 12.25 484.14 10.7 484.14 8.25L484.14 8.25Q484.14 6.45 485.26 5.05 486.39 3.65 488.24 3.65L488.24 3.65Q489.29 3.65 489.29 4.25L489.29 4.25Q489.29 4.6 489.16 5.05 489.04 5.5 489.04 5.95L489.04 5.95Q489.04 7.35 490.64 8.03 492.24 8.7 494.49 8.7L494.49 8.7Q495.89 8.7 497.34 8.4 498.79 8.1 499.76 7.48 500.74 6.85 500.74 5.8L500.74 5.8Q500.74 4.65 499.59 4.1 498.44 3.55 496.69 3.28 494.94 3 493.11 2.78 491.29 2.55 489.99 2.05L489.99 2.05Q488.34 1.5 487.54 0.7 486.74-0.1 486.74-1.35L486.74-1.35Q486.74-3.7 489.59-5.1L489.59-5.1Q487.94-5.95 487.11-7.5 486.29-9.05 486.29-10.95L486.29-10.95Q486.29-13.4 487.56-15.55 488.84-17.7 491.36-19.07 493.89-20.45 497.69-20.45L497.69-20.45Q499.39-20.45 501.14-20.13 502.89-19.8 504.06-18.93 505.24-18.05 505.24-16.4L505.24-16.4Q505.24-15.8 504.99-15.08 504.74-14.35 504.04-14.35L504.04-14.35Q503.74-14.35 503.24-14.48 502.74-14.6 502.34-14.7L502.34-14.7Q502.44-14.2 502.51-13.6 502.59-13 502.59-12.35L502.59-12.35Q502.59-9.4 500.59-7.03 498.59-4.65 494.74-4.2L494.74-4.2Q493.34-4.1 492.66-3.88 491.99-3.65 491.99-3.1L491.99-3.1Q491.99-2.6 492.59-2.38 493.19-2.15 494.14-2.05L494.14-2.05Q497.19-1.8 499.54-1.2 501.89-0.6 503.21 0.73 504.54 2.05 504.54 4.5L504.54 4.5Q504.54 7.35 502.86 9.43 501.19 11.5 498.39 12.65 495.59 13.8 492.29 13.8ZM494.19-8.55L494.19-8.55Q496.49-8.55 497.79-9.8 499.09-11.05 499.09-13.05L499.09-13.05Q499.09-13.6 498.99-14.18 498.89-14.75 498.79-15.15L498.79-15.15Q497.99-15.4 497.24-15.48 496.49-15.55 495.79-15.55L495.79-15.55Q493.14-15.55 491.64-14.55 490.14-13.55 490.14-11.8L490.14-11.8Q490.14-10.25 491.24-9.4 492.34-8.55 494.19-8.55ZM515.88 0.65L515.88 0.65Q512.09 0.65 509.96-1.53 507.84-3.7 507.84-7.6L507.84-7.6Q507.84-11.15 509.39-14.05 510.94-16.95 513.56-18.68 516.19-20.4 519.34-20.4L519.34-20.4Q522.34-20.4 524.13-18.93 525.94-17.45 525.94-15L525.94-15Q525.94-13.05 524.74-11.4 523.54-9.75 521.54-8.78 519.54-7.8 517.09-7.8L517.09-7.8Q514.09-7.8 512.19-9.15L512.19-9.15Q512.24-6.85 513.76-5.45 515.29-4.05 517.69-4.05L517.69-4.05Q519.13-4.05 520.66-4.58 522.19-5.1 523.29-6L523.29-6Q523.99-6.6 524.59-6.6L524.59-6.6Q525.09-6.6 525.41-6.28 525.74-5.95 525.74-5.45L525.74-5.45Q525.74-4.35 523.84-2.55L523.84-2.55Q520.49 0.65 515.88 0.65ZM516.63-11.1L516.63-11.1Q518.44-11.1 519.63-11.85 520.84-12.6 520.84-13.75L520.84-13.75Q520.84-14.7 520.04-15.23 519.24-15.75 517.84-15.75L517.84-15.75Q515.99-15.75 514.61-14.78 513.24-13.8 512.63-12.05L512.63-12.05Q513.34-11.6 514.44-11.35 515.54-11.1 516.63-11.1ZM532.78 0.55L532.78 0.55Q531.98 0.55 531.51 0.28 531.03 0 531.18-0.65L531.18-0.65Q531.73-2.8 532.11-5.03 532.48-7.25 532.48-9.3L532.48-9.3Q532.48-11.95 532.16-13.18 531.83-14.4 531.28-14.88 530.73-15.35 529.93-15.6L529.93-15.6Q529.58-15.75 529.31-16 529.03-16.25 529.03-16.7L529.03-16.7Q529.03-17.4 529.58-18.25 530.13-19.1 531.13-19.73 532.13-20.35 533.43-20.35L533.43-20.35Q535.13-20.35 535.81-19.18 536.48-18 536.48-16.1L536.48-16.1Q537.38-18.1 538.71-19.28 540.03-20.45 542.03-20.45L542.03-20.45Q543.38-20.45 544.28-19.85 545.18-19.25 545.18-17.9L545.18-17.9Q545.18-16.55 544.31-15.38 543.43-14.2 542.53-14.2L542.53-14.2Q542.38-14.2 542.18-14.25 541.98-14.3 541.83-14.5L541.83-14.5Q541.18-15.3 540.23-15.3L540.23-15.3Q538.78-15.3 537.68-13.4 536.58-11.5 536.48-8.15L536.48-8.15Q536.53-6.9 536.56-5.6 536.58-4.3 536.58-3.7L536.58-3.7Q536.58-1.85 535.56-0.65 534.53 0.55 532.78 0.55ZM553.73 0.65L553.73 0.65Q550.68 0.65 549.36-1.38 548.03-3.4 548.03-6.6L548.03-6.6Q548.03-7.75 548.15-8.85 548.28-9.95 548.43-11.05L548.43-11.05Q548.58-12.15 548.73-13.2 548.88-14.25 548.98-15.2L548.98-15.2Q547.93-14.9 546.88-14.9L546.88-14.9Q545.78-14.9 545.78-15.8L545.78-15.8Q545.78-16.75 546.63-18.13 547.48-19.5 548.75-20.85 550.03-22.2 551.3-23.13 552.58-24.05 553.48-24.05L553.48-24.05Q554.58-24.05 554.58-22.15L554.58-22.15Q554.58-21.65 554.5-21.13 554.43-20.6 554.33-20.05L554.33-20.05Q555.28-20.25 556.25-20.4 557.23-20.55 558.13-20.55L558.13-20.55Q559.28-20.55 559.9-20.15 560.53-19.75 560.53-18.6L560.53-18.6Q560.53-17.4 559.95-16.2 559.38-15 558.68-15L558.68-15Q558.53-15 558.18-15.05 557.83-15.1 557.33-15.2L557.33-15.2Q556.68-15.35 555.68-15.5 554.68-15.65 553.28-15.65L553.28-15.65Q552.93-14.1 552.65-12.48 552.38-10.85 552.38-9.55L552.38-9.55Q552.38-6.65 553.83-5.6 555.28-4.55 558.03-4.55L558.03-4.55Q558.88-4.55 559.23-4.28 559.58-4 559.58-3.3L559.58-3.3Q559.58-1.65 557.88-0.5 556.18 0.65 553.73 0.65ZM567.38-24.85L567.38-24.85Q565.98-24.9 565.13-25.7 564.28-26.5 564.28-27.95L564.28-27.95Q564.33-29.5 565.33-30.48 566.33-31.45 567.88-31.4L567.88-31.4Q569.33-31.35 570.15-30.55 570.98-29.75 570.93-28.3L570.93-28.3Q570.88-26.8 569.93-25.83 568.98-24.85 567.38-24.85ZM567.43 0.5L567.43 0.5Q565.93 0.5 565.08-0.33 564.23-1.15 564.23-3.15L564.23-3.15Q564.23-4.3 564.45-5.4 564.68-6.5 564.98-7.55L564.98-7.55Q565.33-8.65 565.55-9.8 565.78-10.95 565.78-12.25L565.78-12.25Q565.78-13.15 565.53-13.98 565.28-14.8 564.43-15.2L564.43-15.2Q563.78-15.55 563.3-15.93 562.83-16.3 562.83-16.9L562.83-16.9Q562.83-17.6 563.48-18.4 564.13-19.2 565.2-19.78 566.28-20.35 567.43-20.35L567.43-20.35Q568.68-20.35 569.25-19.7 569.83-19.05 570.03-18.05 570.23-17.05 570.23-16L570.23-16Q570.23-14.4 569.98-12.88 569.73-11.35 569.48-10.05L569.48-10.05Q569.28-9.1 569.18-8.3 569.08-7.5 569.08-6.8L569.08-6.8Q569.08-5.55 569.68-4.93 570.28-4.3 571.38-3.75L571.38-3.75Q571.83-3.5 571.83-3L571.83-3Q571.83-2.6 571.43-1.75 571.03-0.9 570.05-0.2 569.08 0.5 567.43 0.5ZM578.72 13.8L578.72 13.8Q577.22 13.8 576.37 12.98 575.52 12.15 575.52 10L575.52 10Q575.52 8.55 575.85 6.35 576.17 4.15 576.62 1.7L576.62 1.7Q576.97-0.25 577.3-2.4 577.62-4.55 577.85-6.63 578.07-8.7 578.07-10.35L578.07-10.35Q578.07-12.25 577.65-13.65 577.22-15.05 575.92-15.45L575.92-15.45Q575.42-15.65 575.02-15.9 574.62-16.15 574.62-16.7L574.62-16.7Q574.62-17.4 575.17-18.25 575.72-19.1 576.75-19.73 577.77-20.35 579.07-20.35L579.07-20.35Q580.77-20.35 581.42-19.18 582.07-18 582.07-16.1L582.07-16.1Q582.07-15.55 582.02-14.98 581.97-14.4 581.87-13.8L581.87-13.8Q583.32-16.6 585.7-18.53 588.07-20.45 591.07-20.45L591.07-20.45Q594.07-20.45 595.8-18.43 597.52-16.4 597.52-12.95L597.52-12.95Q597.52-10.4 596.72-7.98 595.92-5.55 594.47-3.6 593.02-1.65 591-0.5 588.97 0.65 586.47 0.65L586.47 0.65Q584.67 0.65 583.32 0.03 581.97-0.6 580.97-1.6L580.97-1.6Q580.77-0.3 580.6 1.55 580.42 3.4 580.42 5L580.42 5Q580.42 6.85 580.85 7.9 581.27 8.95 582.52 9.5L582.52 9.5Q583.07 9.75 583.07 10.3L583.07 10.3Q583.07 10.7 582.67 11.55 582.27 12.4 581.35 13.1 580.42 13.8 578.72 13.8ZM587.62-4.75L587.62-4.75Q590.47-4.75 592.02-6.55 593.57-8.35 593.57-10.7L593.57-10.7Q593.57-12.75 592.47-13.88 591.37-15 589.52-15L589.52-15Q587.62-15 586.17-13.88 584.72-12.75 583.7-10.95 582.67-9.15 582.02-7.1L582.02-7.1Q584.52-4.75 587.62-4.75ZM607.97 0.65L607.97 0.65Q606.12 0.65 604.52 0.1 602.92-0.45 601.92-1.45 600.92-2.45 600.92-3.85L600.92-3.85Q600.92-4.6 601.3-5.28 601.67-5.95 602.52-5.95L602.52-5.95Q602.97-5.95 603.47-5.7L603.47-5.7Q604.37-5.2 605.77-4.78 607.17-4.35 608.72-4.35L608.72-4.35Q610.47-4.35 611.82-4.85 613.17-5.35 613.17-6.25L613.17-6.25Q613.17-6.95 612.15-7.25 611.12-7.55 608.72-7.9L608.72-7.9Q607.07-8.2 605.52-8.6 603.97-9 602.97-9.98 601.97-10.95 601.97-12.85L601.97-12.85Q601.97-14.7 603-16.43 604.02-18.15 606.07-19.3 608.12-20.45 611.07-20.45L611.07-20.45Q612.62-20.45 614.07-20.1 615.52-19.75 616.47-19.05 617.42-18.35 617.42-17.3L617.42-17.3Q617.42-16.4 616.8-15.65 616.17-14.9 615.35-14.43 614.52-13.95 613.97-13.95L613.97-13.95Q613.57-13.95 613.02-14.5L613.02-14.5Q612.17-15.2 611.15-15.48 610.12-15.75 609.12-15.75L609.12-15.75Q607.62-15.75 606.7-15.3 605.77-14.85 605.77-14.15L605.77-14.15Q605.77-13.5 606.55-13.1 607.32-12.7 608.47-12.53 609.62-12.35 610.67-12.2L610.67-12.2Q613.57-11.8 615.27-10.83 616.97-9.85 616.97-7.4L616.97-7.4Q616.97-5.5 615.9-3.63 614.82-1.75 612.8-0.55 610.77 0.65 607.97 0.65Z" opacity="1" transform="matrix(1,0,0,1,0,0)" fill="#ffffff" class="slogan-text-1" data-fill-palette-color="secondary" id="text-1"></path></svg></g></svg></g></svg></g></svg></g><g transform="matrix(1,0,0,1,111.02917820754375,0)"><svg viewBox="0 0 173.46164358491242 173.46164358491242" height="173.46164358491242" width="173.46164358491242"><g><svg></svg></g><g id="icon-0"><svg viewBox="0 0 173.46164358491242 173.46164358491242" height="173.46164358491242" width="173.46164358491242"><g><path transform="scale(1.73462,1.73462)" d="M30 100c-16.569 0-30-13.431-30-30v-40c0-16.569 13.431-30 30-30h40c16.569 0 30 13.431 30 30v40c0 16.569-13.431 30-30 30z" fill="#3f9ecf" fill-rule="nonzero" stroke="none" stroke-width="1" stroke-linecap="butt" stroke-linejoin="miter" stroke-miterlimit="10" stroke-dasharray="" stroke-dashoffset="0" font-family="none" font-weight="none" font-size="none" text-anchor="none" style="mix-blend-mode: normal" data-fill-palette-color="accent"></path></g><g transform="matrix(1,0,0,1,34.79330771872063,34.69232871698249)"><svg viewBox="0 0 103.87502814747117 104.07698615094745" height="104.07698615094745" width="103.87502814747117"><g><svg xmlns="http://www.w3.org/2000/svg" xmlns:xlink="http://www.w3.org/1999/xlink" version="1.1" x="0" y="0" viewBox="10.1 10.07488057405591 79.90182981275836 80.05717816077687" enable-background="new 0 0 100 100" xml:space="preserve" height="104.07698615094745" width="103.87502814747117" class="icon-dxe-0" data-fill-palette-color="quaternary" id="dxe-0"><g fill="#000000" data-fill-palette-color="quaternary"><g fill="#000000" data-fill-palette-color="quaternary"><path fill="#000000" d="M78.3 21.9C86.1 29.7 90.1 39.9 90 50.2 89.8 70.9 69.6 75.5 58.1 64 55 65.8 51.5 66.5 48.1 66.1S41.3 64.2 38.7 61.5C32.4 55.2 32.4 45.1 38.7 38.9S55.1 32.6 61.3 38.9C66.6 44.2 67.4 52.2 63.8 58.3 69.8 64.3 82 63.3 82 50.2 82 42 78.9 33.8 72.6 27.6 60.2 15 39.9 15 27.4 27.5S14.9 60.3 27.4 72.8C36.3 81.7 49 84.2 60.2 80.5L62.7 88.1C48.8 92.7 32.8 89.5 21.8 78.4 6.2 62.8 6.2 37.5 21.8 21.8S62.7 6.2 78.3 21.9M56 44.2C52.9 41.1 47.7 41.1 44.5 44.4 41.3 47.6 41.2 52.7 44.4 55.9S52.7 59 55.9 55.8C59.1 52.5 59.1 47.3 56 44.2" data-fill-palette-color="quaternary"></path></g></g></svg></g></svg></g></svg></g></svg></g><g></g></svg></g><defs></defs></svg><rect width="306.20543362341283" height="247.2" fill="none" stroke="none" visibility="hidden"></rect></g></svg></g></svg>